<?xml version="1.0" encoding="UTF-8" standalone="no"?>
<svg
   xmlns:dc="http://purl.org/dc/elements/1.1/"
   xmlns:cc="http://creativecommons.org/ns#"
   xmlns:rdf="http://www.w3.org/1999/02/22-rdf-syntax-ns#"
   xmlns:svg="http://www.w3.org/2000/svg"
   xmlns="http://www.w3.org/2000/svg"
   xmlns:sodipodi="http://sodipodi.sourceforge.net/DTD/sodipodi-0.dtd"
   xmlns:inkscape="http://www.inkscape.org/namespaces/inkscape"
   inkscape:version="1.0 (4035a4f, 2020-05-01)"
   height="512"
   width="512"
   sodipodi:docname="error.svg"
   id="svg835"
   version="1.1"
   viewBox="0 0 512 512">
  <metadata
     id="metadata841">
    <rdf:RDF>
      <cc:Work
         rdf:about="">
        <dc:format>image/svg+xml</dc:format>
        <dc:type
           rdf:resource="http://purl.org/dc/dcmitype/StillImage" />
        <dc:title></dc:title>
      </cc:Work>
    </rdf:RDF>
  </metadata>
  <defs
     id="defs839" />
  <sodipodi:namedview
     inkscape:current-layer="svg835"
     inkscape:window-maximized="1"
     inkscape:window-y="25"
     inkscape:window-x="0"
     inkscape:cy="292.40449"
     inkscape:cx="283.95506"
     inkscape:zoom="1.2361111"
     showgrid="false"
     id="namedview837"
     inkscape:window-height="996"
     inkscape:window-width="1792"
     inkscape:pageshadow="2"
     inkscape:pageopacity="0"
     guidetolerance="10"
     gridtolerance="10"
     objecttolerance="10"
     borderopacity="1"
     bordercolor="#666666"
     pagecolor="#ffffff" />
  <path
     style="stroke-width:0.888889"
     id="path833"
     d="m 221.10862,210.40444 5.856,99.55558 c 0.33156,5.63822 5.00089,10.04 10.648,10.04 h 36.77334 a 10.666669,10.666669 0 0 0 10.648,-10.04 l 5.856,-99.55558 c 0.36001,-6.12711 -4.51111,-11.29333 -10.648,-11.29333 h -48.48623 c -6.136,0 -11.00711,5.16622 -10.64711,11.29333 z m 72.2249,159.37337 c 0,20.61867 -16.71467,37.33334 -37.33334,37.33334 -20.61867,0 -37.33334,-16.71467 -37.33334,-37.33334 0,-20.61867 16.71467,-37.33334 37.33334,-37.33334 20.61867,0 37.33334,16.71467 37.33334,37.33334 z m -0.376,-320.013398 c -16.38489,-28.400894 -57.49957,-28.452449 -73.91468,0 L 5.7574719,419.56715 C -10.617642,447.95204 9.8828062,483.5556 42.714812,483.5556 H 469.28022 c 32.7689,0 53.36445,-35.54934 36.95734,-63.98845 z M 47.281036,432.89071 251.38062,79.118196 c 2.05245,-3.557334 7.18667,-3.557334 9.23912,0 L 464.71933,432.88982 c 2.05156,3.55555 -0.51467,7.99822 -4.61956,7.99822 H 51.900592 c -4.104001,8.9e-4 -6.670224,-4.44178 -4.619556,-7.99733 z"
     fill="currentColor" />
</svg>
